<svg xmlns="http://www.w3.org/2000/svg" viewBox="0 0 520 430" role="img" aria-labelledby="title desc">
  <title id="title">Golden pastry illustration</title>
  <desc id="desc">A branded illustration of a flaky golden pastry.</desc>
  <defs><linearGradient id="gold" x1="0" y1="0" x2="1" y2="1"><stop stop-color="#f2c078"/><stop offset=".55" stop-color="#c7793e"/><stop offset="1" stop-color="#704f41"/></linearGradient></defs>
  <ellipse cx="260" cy="363" rx="192" ry="28" fill="#3a2018" opacity=".14"/>
  <path d="M82 308c34-99 104-166 190-174 81-7 142 56 168 161 8 31-15 62-47 62H126c-33 0-55-19-44-49z" fill="url(#gold)" stroke="#06386e" stroke-width="9"/>
  <path d="M117 308c38-80 94-126 158-132 58-5 107 39 136 127" fill="none" stroke="#f7f3ea" stroke-width="13" opacity=".6"/>
  <path d="M150 306c33-53 78-82 127-87 43-3 80 27 105 82" fill="none" stroke="#704f41" stroke-width="10" opacity=".8"/>
  <path d="M197 305c20-27 47-42 78-44 27-2 52 15 70 41" fill="none" stroke="#f7f3ea" stroke-width="9" opacity=".65"/>
  <g fill="#0057a8"><path d="M314 125c-24-51 1-87 39-92 6 37-6 69-39 92z"/><path d="M320 126c28-42 67-43 93-16-20 30-55 39-93 16z"/></g>
  <path d="M317 131c22-31 45-53 72-72" fill="none" stroke="#06386e" stroke-width="6" stroke-linecap="round"/>
  <text x="261" y="342" text-anchor="middle" fill="#f7f3ea" font-family="Georgia,serif" font-size="30" font-weight="bold">OTB</text>
</svg>
